<?xml version="1.0" encoding="iso-8859-1"?>
<!-- Generator: Adobe Illustrator 23.0.3, SVG Export Plug-In . SVG Version: 6.00 Build 0)  -->
<svg version="1.1" id="Layer_1" xmlns="http://www.w3.org/2000/svg" xmlns:xlink="http://www.w3.org/1999/xlink" x="0px" y="0px"
	 viewBox="0 0 477.579 157.304" style="enable-background:new 0 0 477.579 157.304;" xml:space="preserve">
<g>
	<g>
		<path style="fill:#FFFFFF;" d="M473.963,27.927l-6.049-6.901c0.07,0.553,0.105,1.112,0.105,1.675c0,2.54-0.693,4.989-2.004,7.081
			l-0.047,0.075l-5.193,5.989l4.42,5.1c1.821,2.326,2.824,5.236,2.824,8.194c0,0.53-0.03,1.056-0.09,1.575l6.034-6.889
			c2.636-3.357,3.616-5.517,3.616-7.961C477.579,33.438,476.599,31.284,473.963,27.927z"/>
		<path style="fill:#FFFFFF;" d="M462.497,14.844l-4.098-4.693c-1.589-1.87-3.207-3.325-4.818-4.338
			c-1.521-0.957-3.416-1.442-5.634-1.442c-2.367,0-4.504,0.434-6.353,1.291c-1.577,0.732-3.125,1.649-4.616,2.733l22.275,25.699
			l4.86-5.605c1.052-1.71,1.608-3.709,1.608-5.787c0-2.608-0.917-5.129-2.583-7.099L462.497,14.844z"/>
		<path style="fill:#FFFFFF;" d="M458.394,61.6l5.296-6.046l0.253-0.371c1.16-1.762,1.778-3.857,1.778-6.042
			c0-2.437-0.823-4.835-2.319-6.756l-4.151-4.788l-22.29,25.7l0.041,0.032l-0.015,0.018c1.49,1.083,3.037,2,4.613,2.731
			c1.848,0.856,3.985,1.291,6.352,1.291c2.218,0,4.113-0.485,5.633-1.442C455.197,64.914,456.815,63.458,458.394,61.6z"/>
	</g>
	<g>
		<path style="fill:#7C8989;" d="M473.341,39.732c-0.118,0.639-0.291,1.271-0.517,1.886
			C473.05,41.003,473.223,40.371,473.341,39.732z"/>
		<path style="fill:#F9B233;" d="M472.447,42.529c-0.417,0.897-0.95,1.75-1.594,2.533C471.498,44.28,472.031,43.427,472.447,42.529z
			"/>
		<g>
			<path style="fill:#FFFFFF;" d="M42.747,87.815c2.677,0,5.035-0.257,7.071-0.772c2.034-0.513,3.856-1.145,5.464-1.896
				c1.607-0.748,2.998-1.566,4.178-2.456c1.178-0.888,2.25-1.707,3.214-2.457c1.286,1.404,2.624,3.207,4.017,5.405
				c1.391,2.201,2.089,4.001,2.089,5.405c0,2.059-1.34,3.93-4.017,5.615c-2.25,1.498-5.439,2.786-9.562,3.861
				c-4.126,1.075-8.975,1.614-14.544,1.614c-5.037,0-9.991-0.562-14.865-1.685c-4.876-1.122-9.215-3.088-13.017-5.896
				c-3.804-2.808-6.885-6.573-9.241-11.3C1.178,78.527,0,72.56,0,65.353c0-5.895,1.045-10.971,3.134-15.231
				c2.089-4.257,4.874-7.791,8.357-10.599c3.48-2.808,7.417-4.865,11.811-6.177c4.392-1.309,8.892-1.965,13.499-1.965
				c5.999,0,11.089,0.82,15.267,2.457c4.178,1.639,7.578,3.839,10.204,6.598c2.624,2.762,4.525,5.92,5.705,9.476
				c1.178,3.558,1.768,7.3,1.768,11.23c0,0.562,0,1.217,0,1.966c0,0.75-0.028,1.544-0.08,2.386
				c-0.055,0.843-0.108,1.663-0.161,2.457c-0.055,0.796-0.136,1.428-0.241,1.895H22.016c0.427,5.148,2.25,9.43,5.464,12.845
				C30.695,86.108,35.781,87.815,42.747,87.815z M49.979,59.317c0-4.492-0.992-8.142-2.973-10.95
				c-1.984-2.807-5.545-4.211-10.687-4.211c-4.5,0-8.035,1.334-10.606,4.001c-2.571,2.667-3.857,6.388-3.857,11.16H49.979z"/>
		</g>
		<path style="fill:#FFFFFF;" d="M176.766,45.929c-0.568-3.969-2.435-7.371-5.599-10.207c-3.167-2.834-8.103-4.252-14.812-4.252
			c-5.387,0-9.83,0.969-13.326,2.905c-3.497,1.938-6.236,4.136-8.221,6.591c-1.23-2.551-3.144-4.771-5.741-6.662
			c-2.601-1.89-6.544-2.834-11.836-2.834c-5.67,0-10.161,0.921-13.467,2.763c-3.308,1.843-5.766,3.852-7.371,6.025
			c-0.566-2.741-1.962-4.655-4.181-5.741c-2.222-1.085-4.845-1.63-7.868-1.63c-1.04,0-1.938,0.024-2.692,0.071
			c-0.758,0.048-1.417,0.119-1.985,0.213l-1.701,0.284v67.048h19.42V54.576c0-2.173,1.062-3.992,3.189-5.458
			c2.127-1.464,4.842-2.198,8.152-2.198c2.455,0,4.345,0.355,5.669,1.062c1.322,0.709,2.315,1.701,2.978,2.978
			c0.659,1.275,1.038,2.812,1.133,4.606c0.093,1.796,0.142,3.734,0.142,5.812v39.124h19.278V61.238c0-2.834-0.142-5.622-0.426-8.363
			c0.851-1.324,2.386-2.552,4.608-3.686c2.218-1.135,4.558-1.701,7.017-1.701c2.267,0,4.039,0.332,5.316,0.991
			c1.275,0.663,2.218,1.608,2.834,2.836c0.614,1.229,0.967,2.692,1.064,4.393c0.092,1.701,0.14,3.592,0.14,5.67v39.124h19.28V60.528
			c0-2.455-0.071-4.961-0.213-7.512C177.404,50.464,177.143,48.104,176.766,45.929z"/>
		<path style="fill:#FFFFFF;" d="M245.866,38.7c-2.599-2.646-5.577-4.513-8.929-5.599c-3.357-1.085-6.876-1.63-10.562-1.63
			c-4.347,0-7.891,0.687-10.631,2.056c-2.741,1.37-4.819,2.763-6.236,4.181V11.341c0-2.36-0.379-4.274-1.133-5.741
			c-0.758-1.464-1.725-2.621-2.907-3.473c-1.182-0.85-2.551-1.417-4.11-1.701C199.797,0.142,198.26,0,196.75,0
			c-1.512,0-2.93,0.071-4.252,0.213c-1.326,0.142-2.08,0.261-2.268,0.355v99.936h12.474c1.89,0,3.212-0.543,3.969-1.63
			c0.754-1.087,1.133-2.339,1.133-3.757c0.189,0.284,0.659,0.803,1.417,1.559c0.851,0.758,2.007,1.559,3.473,2.41
			c1.464,0.85,3.307,1.63,5.529,2.338c2.22,0.709,4.842,1.064,7.868,1.064c3.402,0,6.78-0.568,10.135-1.701
			c3.353-1.135,6.378-3.096,9.072-5.883c2.692-2.786,4.89-6.591,6.591-11.412c1.701-4.819,2.552-10.913,2.552-18.285
			c0-6.427-0.78-11.787-2.339-16.089C250.545,44.818,248.465,41.345,245.866,38.7z M231.196,81.862
			c-2.08,3.828-5.529,5.741-10.348,5.741c-2.931,0-5.366-0.543-7.3-1.63c-1.938-1.085-3.286-2.007-4.04-2.763V52.449
			c0-1.89,0.78-3.591,2.339-5.103c1.559-1.511,4.323-2.268,8.292-2.268c2.644,0,4.89,0.521,6.733,1.559
			c1.843,1.042,3.307,2.459,4.395,4.253c1.085,1.796,1.864,3.947,2.338,6.449c0.472,2.506,0.709,5.222,0.709,8.152
			C234.314,72.579,233.273,78.034,231.196,81.862z"/>
		<path style="fill:#FFFFFF;" d="M319.223,57.41c0-4.345-0.474-8.15-1.417-11.41c-0.947-3.262-2.53-5.977-4.75-8.152
			c-2.222-2.173-5.103-3.779-8.647-4.819c-3.544-1.038-7.866-1.559-12.971-1.559c-3.684,0-7.183,0.308-10.489,0.921
			c-3.308,0.616-6.236,1.417-8.789,2.41c-2.551,0.992-4.56,2.127-6.023,3.402c-1.467,1.275-2.198,2.53-2.198,3.757
			c0,0.945,0.401,2.388,1.204,4.322c0.803,1.938,1.865,3.71,3.189,5.316c3.025-1.701,6.119-3.212,9.285-4.535
			c3.165-1.322,6.78-1.985,10.844-1.985c4.345,0,7.489,0.758,9.427,2.268c1.936,1.512,2.905,4.065,2.905,7.653v2.552
			c-0.945,0-1.962,0-3.047,0c-1.088,0-2.198,0.048-3.331,0.142c-3.402,0.19-7.136,0.616-11.199,1.275
			c-4.065,0.663-7.846,1.867-11.341,3.615c-3.497,1.749-6.402,4.136-8.718,7.159c-2.315,3.026-3.473,6.946-3.473,11.765
			c0,3.876,0.661,7.159,1.985,9.853c1.322,2.692,3.023,4.843,5.103,6.449c2.078,1.609,4.395,2.765,6.946,3.473
			c2.552,0.709,5.105,1.064,7.655,1.064c4.912,0,9.072-0.758,12.474-2.269c3.402-1.511,6.143-3.353,8.221-5.529
			c0.472,2.459,1.582,4.348,3.333,5.67c1.746,1.322,4.322,1.985,7.724,1.985c1.606,0,3.141-0.142,4.608-0.426
			c1.464-0.284,3.047-0.758,4.748-1.417c-2.175-3.495-3.26-8.93-3.26-16.302V57.41z M301.079,82.075
			c0,0.758-0.355,1.583-1.062,2.481c-0.709,0.898-1.68,1.725-2.907,2.48c-1.229,0.758-2.646,1.372-4.251,1.843
			c-1.609,0.474-3.31,0.709-5.103,0.709c-3.594,0-6.145-0.922-7.655-2.765c-1.512-1.841-2.269-4.085-2.269-6.733
			c0-2.36,0.568-4.298,1.701-5.811c1.135-1.511,2.599-2.717,4.395-3.615c1.793-0.898,3.848-1.561,6.165-1.985
			c2.315-0.426,4.653-0.732,7.017-0.922c0.661-0.093,1.322-0.142,1.985-0.142c0.661,0,1.322,0,1.985,0V82.075z"/>
		<path style="fill:#FFFFFF;" d="M372.875,32.816c-1.088-0.519-2.269-0.872-3.544-1.062c-1.277-0.189-2.481-0.284-3.615-0.284
			c-1.891,0-3.663,0.284-5.316,0.85c-1.654,0.568-3.144,1.277-4.466,2.127c-1.324,0.851-2.48,1.796-3.473,2.834
			c-0.992,1.042-1.772,1.985-2.339,2.836c-0.566-2.457-1.962-4.276-4.181-5.458c-2.222-1.18-4.845-1.772-7.868-1.772
			c-1.04,0-1.938,0.024-2.693,0.071c-0.758,0.048-1.417,0.119-1.985,0.213l-1.701,0.284v67.048h19.278V56.843
			c0-2.36,0.992-4.393,2.976-6.094c1.985-1.701,4.442-2.552,7.371-2.552c2.173,0,4.063,0.355,5.67,1.064
			c1.606,0.708,3.212,1.725,4.819,3.047c1.04-1.89,2.078-4.203,3.118-6.946c1.04-2.739,1.561-5.103,1.561-7.088
			c0-1.322-0.332-2.433-0.993-3.331C374.834,34.045,373.96,33.337,372.875,32.816z"/>
		<path style="fill:#FFFFFF;" d="M443.82,36.715c-1.796-1.417-3.663-2.575-5.598-3.473c-1.938-0.898-4.136-1.348-6.593-1.348
			c-2.362,0-4.371,0.521-6.023,1.561c-1.654,1.04-3.286,2.504-4.892,4.393L405.69,55c-1.891,2.175-3.118,4.537-3.686,7.088V11.341
			c0-2.36-0.379-4.274-1.133-5.741c-0.758-1.464-1.751-2.621-2.978-3.473c-1.229-0.85-2.599-1.417-4.11-1.701
			C392.269,0.142,390.757,0,389.246,0c-1.512,0-2.93,0.071-4.251,0.213c-1.326,0.142-2.08,0.261-2.269,0.355v99.936h19.278V66.341
			c0.472,2.834,1.511,5.198,3.118,7.088l25.782,31.59c2.173,2.743,4.395,4.656,6.664,5.741c2.267,1.085,5.103,1.63,8.505,1.63
			c2.172,0,4.252-0.332,6.236-0.991c1.985-0.661,3.637-1.466,4.961-2.41l-36.556-45.623L443.82,36.715z"/>
	</g>
	<g>
		<path style="fill:#FFFFFF;" d="M319.128,144.762c-0.254,0.254-0.57,0.539-0.95,0.855s-0.831,0.602-1.354,0.854
			c-0.522,0.254-1.116,0.468-1.781,0.642c-0.666,0.174-1.395,0.262-2.186,0.262c-1.235,0-2.423-0.207-3.563-0.618
			c-1.14-0.411-2.146-1.068-3.017-1.972c-0.871-0.902-1.561-2.09-2.066-3.563c-0.507-1.473-0.76-3.27-0.76-5.392
			c0-2.091,0.253-3.896,0.76-5.416c0.506-1.521,1.188-2.763,2.043-3.729c0.855-0.966,1.853-1.687,2.993-2.161
			c1.14-0.476,2.343-0.713,3.61-0.713c1.52,0,2.779,0.23,3.776,0.688c0.998,0.46,1.829,1.038,2.494,1.734
			c0.158-0.696,0.522-1.212,1.093-1.544c0.57-0.333,1.124-0.499,1.663-0.499c0.158,0,0.332,0,0.522,0
			c0.189,0,0.411,0.032,0.665,0.095v20.809c0,1.931-0.166,3.649-0.499,5.154c-0.333,1.504-0.911,2.779-1.734,3.824
			s-1.932,1.845-3.325,2.399c-1.394,0.554-3.151,0.831-5.273,0.831c-1.52,0-2.826-0.143-3.919-0.428s-2.004-0.634-2.731-1.045
			c-0.57-0.349-0.974-0.682-1.212-0.998c-0.237-0.316-0.356-0.649-0.356-0.997c0-0.412,0.183-0.872,0.547-1.378
			c0.363-0.507,0.688-0.919,0.974-1.235c0.063,0.095,0.269,0.277,0.618,0.547c0.348,0.269,0.814,0.562,1.401,0.878
			c0.585,0.316,1.274,0.595,2.066,0.832c0.791,0.237,1.662,0.356,2.612,0.356c1.521,0,2.732-0.214,3.635-0.642
			s1.599-1.029,2.09-1.806s0.808-1.694,0.95-2.755c0.143-1.062,0.214-2.24,0.214-3.539V144.762z M319.033,129.702h0.047
			c-0.189-0.189-0.436-0.419-0.736-0.688c-0.301-0.269-0.681-0.538-1.14-0.808c-0.46-0.269-0.99-0.491-1.592-0.665
			s-1.282-0.262-2.043-0.262c-1.805,0-3.23,0.674-4.275,2.02s-1.567,3.365-1.567,6.057c0,1.235,0.095,2.375,0.285,3.421
			c0.189,1.045,0.522,1.956,0.997,2.731c0.476,0.776,1.101,1.378,1.877,1.805c0.775,0.428,1.734,0.642,2.874,0.642
			c0.76,0,1.465-0.095,2.114-0.285c0.648-0.189,1.211-0.428,1.687-0.712c0.475-0.285,0.839-0.618,1.093-0.998
			c0.253-0.38,0.38-0.76,0.38-1.141V129.702z"/>
		<path style="fill:#FFFFFF;" d="M330.102,124.239c0.253-0.031,0.451-0.048,0.594-0.048s0.229,0,0.262,0
			c0.728,0,1.385,0.183,1.972,0.547c0.585,0.364,0.941,0.974,1.068,1.828c0.443-0.665,1.108-1.29,1.995-1.876
			s1.916-0.879,3.088-0.879c0.349,0,0.721,0.032,1.117,0.095c0.396,0.064,0.767,0.167,1.116,0.309
			c0.348,0.143,0.633,0.341,0.854,0.595s0.333,0.586,0.333,0.997c0,0.507-0.127,1.054-0.38,1.639
			c-0.254,0.587-0.507,1.069-0.761,1.449c-0.412-0.38-0.854-0.672-1.33-0.879c-0.475-0.205-1.077-0.309-1.805-0.309
			c-0.539,0-1.054,0.088-1.544,0.262c-0.492,0.174-0.927,0.411-1.307,0.712c-0.38,0.302-0.682,0.642-0.902,1.021
			c-0.223,0.38-0.333,0.776-0.333,1.188v15.772h-4.038V124.239z"/>
		<path style="fill:#FFFFFF;" d="M365.114,135.403c0,1.552-0.189,3.048-0.569,4.489c-0.381,1.441-0.99,2.716-1.829,3.824
			c-0.84,1.109-1.925,1.995-3.255,2.66s-2.945,0.998-4.846,0.998c-1.869,0-3.468-0.317-4.798-0.95
			c-1.33-0.634-2.407-1.48-3.23-2.542c-0.824-1.061-1.425-2.312-1.805-3.753c-0.381-1.44-0.57-2.969-0.57-4.584
			c0-1.584,0.221-3.088,0.665-4.514c0.443-1.425,1.108-2.668,1.995-3.729c0.887-1.061,1.987-1.907,3.302-2.541
			c1.313-0.633,2.857-0.95,4.632-0.95c1.836,0,3.412,0.317,4.727,0.95c1.314,0.634,2.383,1.48,3.207,2.541
			c0.823,1.062,1.425,2.289,1.806,3.683C364.924,132.379,365.114,133.851,365.114,135.403z M360.838,135.45
			c0-0.98-0.088-1.955-0.261-2.921c-0.175-0.966-0.483-1.837-0.927-2.613c-0.444-0.775-1.062-1.401-1.853-1.876
			c-0.792-0.476-1.822-0.713-3.088-0.713c-1.204,0-2.209,0.237-3.017,0.713c-0.808,0.475-1.449,1.101-1.925,1.876
			c-0.475,0.776-0.815,1.647-1.021,2.613c-0.207,0.966-0.31,1.94-0.31,2.921c0,0.982,0.087,1.972,0.262,2.97
			c0.174,0.997,0.499,1.908,0.974,2.731c0.476,0.824,1.108,1.496,1.9,2.019c0.791,0.523,1.806,0.784,3.04,0.784
			c1.267,0,2.312-0.261,3.136-0.784c0.823-0.522,1.456-1.188,1.9-1.995c0.443-0.808,0.752-1.718,0.927-2.731
			C360.75,137.43,360.838,136.432,360.838,135.45z"/>
		<path style="fill:#FFFFFF;" d="M370.72,124.096c0.221-0.031,0.403-0.048,0.546-0.048s0.245,0,0.309,0
			c0.95,0,1.718,0.237,2.305,0.713c0.585,0.475,0.878,1.314,0.878,2.518v11.069c0,1.235,0.087,2.217,0.262,2.945
			c0.174,0.729,0.53,1.282,1.069,1.663c0.475,0.349,0.989,0.586,1.544,0.712c0.554,0.127,1.194,0.19,1.924,0.19
			c0.854,0,1.639-0.119,2.352-0.356c0.712-0.237,1.322-0.53,1.829-0.879c0.506-0.348,0.902-0.72,1.188-1.116
			c0.285-0.396,0.428-0.752,0.428-1.069v-16.342c0.221-0.031,0.403-0.048,0.546-0.048s0.245,0,0.309,0
			c0.95,0,1.718,0.237,2.305,0.713c0.585,0.475,0.879,1.314,0.879,2.518v19.383h-4.038v-2.09c-0.634,0.729-1.521,1.377-2.661,1.947
			c-1.14,0.57-2.612,0.855-4.418,0.855c-1.837,0-3.262-0.285-4.275-0.855s-1.766-1.298-2.257-2.186
			c-0.491-0.886-0.783-1.86-0.879-2.921c-0.095-1.062-0.142-2.083-0.142-3.064V124.096z"/>
		<path style="fill:#FFFFFF;" d="M396.42,124.239c0.253-0.031,0.451-0.048,0.594-0.048s0.245,0,0.309,0
			c0.76,0,1.417,0.175,1.972,0.522c0.554,0.35,0.926,0.935,1.116,1.758c0.602-0.728,1.44-1.354,2.518-1.876
			c1.076-0.522,2.423-0.784,4.038-0.784c1.235,0,2.399,0.206,3.492,0.617c1.093,0.412,2.058,1.069,2.897,1.972
			c0.839,0.902,1.504,2.075,1.995,3.516c0.491,1.441,0.736,3.207,0.736,5.297c0,2.375-0.293,4.347-0.879,5.915
			c-0.586,1.567-1.346,2.811-2.28,3.729c-0.935,0.919-1.972,1.568-3.111,1.948c-1.141,0.38-2.249,0.57-3.325,0.57
			c-1.711,0-3.057-0.294-4.038-0.879c-0.982-0.586-1.647-1.116-1.995-1.592v12.02h-4.038V124.239z M400.458,141.294
			c0.189,0.254,0.442,0.53,0.76,0.831c0.316,0.302,0.704,0.578,1.164,0.832c0.458,0.254,0.981,0.475,1.567,0.665
			c0.586,0.189,1.212,0.284,1.877,0.284c1.995,0,3.483-0.72,4.465-2.161c0.981-1.44,1.473-3.539,1.473-6.295
			c0-1.14-0.103-2.216-0.309-3.23c-0.206-1.013-0.539-1.884-0.997-2.612c-0.46-0.729-1.077-1.307-1.854-1.734
			s-1.733-0.641-2.874-0.641c-1.52,0-2.778,0.316-3.776,0.949c-0.998,0.635-1.496,1.395-1.496,2.28V141.294z"/>
	</g>
</g>
<g>
</g>
<g>
</g>
<g>
</g>
<g>
</g>
<g>
</g>
<g>
</g>
</svg>
